<svg width="13" height="13" viewBox="0 0 13 13" fill="none" xmlns="http://www.w3.org/2000/svg">
<g id="LinkedIn_icon 1" clip-path="url(#clip0_819_17719)">
<g id="Group">
<path id="Vector" fill-rule="evenodd" clip-rule="evenodd" d="M2.06673 12.0625H11.4001C12.1364 12.0625 12.7334 11.4655 12.7334 10.7292V1.39583C12.7334 0.659454 12.1364 0.0625 11.4001 0.0625H2.06673C1.33035 0.0625 0.733398 0.659454 0.733398 1.39583V10.7292C0.733398 11.4655 1.33035 12.0625 2.06673 12.0625Z" fill="#007EBB"/>
<path id="Vector_2" fill-rule="evenodd" clip-rule="evenodd" d="M11.068 10.3962H9.2873V7.36318C9.2873 6.53162 8.97133 6.06691 8.31315 6.06691C7.59714 6.06691 7.22305 6.55051 7.22305 7.36318V10.3962H5.50692V4.61838H7.22305V5.39665C7.22305 5.39665 7.73904 4.44186 8.96513 4.44186C10.1906 4.44186 11.068 5.19024 11.068 6.73803V10.3962ZM3.45959 3.86183C2.87504 3.86183 2.40137 3.38443 2.40137 2.79566C2.40137 2.20688 2.87504 1.72949 3.45959 1.72949C4.04414 1.72949 4.51753 2.20688 4.51753 2.79566C4.51753 3.38443 4.04414 3.86183 3.45959 3.86183ZM2.57346 10.3962H4.36293V4.61838H2.57346V10.3962Z" fill="white"/>
</g>
</g>
<defs>
<clipPath id="clip0_819_17719">
<rect width="12" height="12" fill="white" transform="translate(0.733398 0.0625)"/>
</clipPath>
</defs>
</svg>
